<?xml version="1.0" encoding="utf-8"?>
<!-- Generator: Adobe Illustrator 26.2.1, SVG Export Plug-In . SVG Version: 6.00 Build 0)  -->
<svg version="1.1" id="Layer_1" xmlns="http://www.w3.org/2000/svg" xmlns:xlink="http://www.w3.org/1999/xlink" x="0px" y="0px"
	 viewBox="0 0 325.7 151.8" style="enable-background:new 0 0 325.7 151.8;" xml:space="preserve">
<style type="text/css">
	.st0{fill:#FFFFFF;}
	.st1{fill:#D4794C;}
	.st2{fill:#B68870;}
	.st3{fill:#949494;}
	.st4{fill:#7F9CAC;}
	.st5{fill:#62A4C5;}
	.st6{fill:#F16724;}
	.st7{fill:#2CACE2;}
</style>
<g id="Group">
	<g>
		<g>
			<path class="st0" d="M167.1,132.1h-11.5c-0.3,0-0.5,0.2-0.5,0.5v4.4c0,0.3,0.2,0.5,0.5,0.5h4.3v4.4c-0.5,0.1-1.5,0.2-3,0.2
				c-5.7,0-9.2-3-9.2-7.7c0-4.8,3.6-7.6,9.7-7.6c3.6,0,5.6,0.6,7,1c0.1,0,0.3,0,0.4,0c0.1-0.1,0.2-0.2,0.2-0.3l1.5-4.5
				c0.1-0.2,0-0.5-0.3-0.6c-1.5-0.6-4.6-1.3-8.7-1.3c-10.9,0-18,5.3-18,13.5c0,3.8,1.6,7.2,4.5,9.5c3,2.3,7.2,3.5,12.8,3.5
				c3.9,0,7.9-0.7,10.4-1.4c0.2-0.1,0.3-0.2,0.3-0.4v-13.2C167.5,132.4,167.3,132.1,167.1,132.1z"/>
			<path class="st0" d="M202.2,142.1c-0.3-0.8-0.5-1.6-0.8-2.4c-0.8-2.2-1.9-3.7-3.4-4.5c2.5-1.1,4.8-3.3,4.8-6.2c0-2.4-1-4.3-3-5.6
				c-2.2-1.4-5.3-2-10.2-2c-3.4,0-6.8,0.2-9.3,0.5c-0.2,0-0.4,0.2-0.4,0.5V147c0,0.3,0.2,0.5,0.5,0.5h6.9c0.3,0,0.5-0.2,0.5-0.5
				v-9.4h1.6c2.7,0,3.8,0.9,4.5,3.7c1,3.3,1.7,5.2,2.2,6c0.1,0.1,0.2,0.2,0.4,0.2h7.1c0.2,0,0.3-0.1,0.4-0.2c0.1-0.1,0.1-0.3,0-0.5
				C203.5,146,202.8,144.1,202.2,142.1z M194.9,129.4c0,1.9-1.9,3.1-5.1,3.1h-2.3v-6c0.7-0.1,1.6-0.1,2.7-0.1
				C192.4,126.4,194.9,127,194.9,129.4z"/>
			<path class="st0" d="M228.4,121.1c-9.1,0-15.4,5.6-15.4,13.6c0,7.9,6,13.2,14.9,13.2c9.5,0,15.6-5.3,15.6-13.6
				C243.5,127.6,238.8,121.1,228.4,121.1z M228.3,142.4c-4.3,0-7-3.1-7-7.9c0-4.9,2.7-8,7-8c4.8,0,7,4,7,7.9
				C235.2,139.2,232.5,142.4,228.3,142.4z"/>
			<path class="st0" d="M280.4,121.5h-6.9c-0.3,0-0.5,0.2-0.5,0.5v14.4c0,4.1-1.7,6-5.2,6c-3.4,0-5.1-2-5.1-6V122
				c0-0.3-0.2-0.5-0.5-0.5h-7c-0.3,0-0.5,0.2-0.5,0.5v13.9c0,7.9,4.3,11.9,12.8,11.9c8.6,0,13.3-4.2,13.3-11.8v-14
				C280.9,121.7,280.7,121.5,280.4,121.5z"/>
			<path class="st0" d="M313.2,123.4c-2.2-1.4-5.3-2.1-9.7-2.1c-3.8,0-7,0.2-9.5,0.5c-0.2,0-0.4,0.2-0.4,0.5v24.6
				c0,0.3,0.2,0.5,0.5,0.5h6.9c0.3,0,0.5-0.2,0.5-0.5v-8.4c0.6,0,1.2,0.1,1.9,0.1c4.5,0,7.9-0.9,10.3-2.7c1.9-1.5,3-3.7,3-6.3
				C316.7,127,315.4,124.8,313.2,123.4z M308.9,129.7c0,2.3-2.1,3.6-5.5,3.6c-0.8,0-1.4,0-1.9-0.1v-6.6c0.4-0.1,1.2-0.1,2.4-0.1
				C307.1,126.5,308.9,127.6,308.9,129.7z"/>
		</g>
	</g>
</g>
<g id="VPE">
	<g>
		<path class="st0" d="M212.8,12c-7.6-5.4-18.2-8.1-33.3-8.1c-13.1,0-24.1,0.8-32.7,1.9c-0.7,0-1.4,0.8-1.4,1.9V103
			c0,1.2,0.7,1.9,1.7,1.9h23.7c1,0,1.7-0.8,1.7-1.9V70.5c2.1,0,4.1,0.4,6.5,0.4c15.5,0,27.2-3.5,35.4-10.5
			c6.5-5.8,10.3-14.3,10.3-24.4C224.9,26,220.4,17.5,212.8,12z M198.1,36.5c0,8.9-7.2,13.9-18.9,13.9c-2.8,0-4.8,0-6.5-0.4V24.4
			c1.4-0.4,4.1-0.4,8.3-0.4C191.9,24.1,198.1,28.3,198.1,36.5z"/>
		<g>
			<path class="st0" d="M60.1,47.4L44.7,11.5l-2.9-6.8c-0.2-0.5-0.7-0.8-1.3-0.8h-36C4,3.9,3.6,4.1,3.3,4.5c-0.2,0.4-0.2,0.9,0,1.4
				l37.5,88.2c0.2,0.5,0.7,0.9,1.3,0.9l0,0c0.6,0,1.1-0.4,1.3-0.9l16.7-45.6C60.3,48.1,60.3,47.7,60.1,47.4"/>
			<path class="st1" d="M118.3,25.6H82.4c-1.6,0-2.9-1.3-2.9-2.9s1.3-2.9,2.9-2.9h35.9c1.6,0,2.9,1.3,2.9,2.9
				C121.2,24.3,119.9,25.6,118.3,25.6"/>
			<path class="st2" d="M112.2,41.5H76.7c-1.6,0-2.9-1.3-2.9-2.9c0-1.6,1.3-2.9,2.9-2.9h35.5c1.6,0,2.9,1.3,2.9,2.9
				C115,40.2,113.7,41.5,112.2,41.5"/>
			<path class="st3" d="M106,57.4H71c-1.6,0-2.9-1.3-2.9-2.9c0-1.6,1.3-2.9,2.9-2.9h35c1.6,0,2.9,1.3,2.9,2.9
				C108.9,56.1,107.6,57.4,106,57.4"/>
			<path class="st4" d="M99.4,73.2H64.9c-1.6,0-2.9-1.3-2.9-2.9s1.3-2.9,2.9-2.9h34.5c1.6,0,2.9,1.3,2.9,2.9
				C102.3,72,101,73.2,99.4,73.2"/>
			<path class="st5" d="M92.8,89.1H58.7c-1.6,0-2.9-1.3-2.9-2.9s1.3-2.9,2.9-2.9h34.1c1.6,0,2.9,1.3,2.9,2.9
				C95.7,87.8,94.4,89.1,92.8,89.1"/>
			<path class="st6" d="M124.4,9.7H88c-1.6,0-2.9-1.3-2.9-2.9s1.3-2.9,2.9-2.9h36.4c1.6,0,2.9,1.3,2.9,2.9S126,9.7,124.4,9.7"/>
			<path class="st7" d="M86.2,105H52.6c-1.6,0-2.9-1.3-2.9-2.9s1.3-2.9,2.9-2.9h33.6c1.6,0,2.9,1.3,2.9,2.9S87.8,105,86.2,105"/>
		</g>
		<path class="st0" d="M320.7,25.4c1,0,1.8-0.8,1.8-1.8v-18c0-1-0.8-1.8-1.8-1.8H270h-11.8h-11.8c-1,0-1.8,0.8-1.8,1.8v97.6
			c0,1,0.8,1.8,1.8,1.8h9.8H270h50.7c1,0,1.8-0.8,1.8-1.8v-18c0-1-0.8-1.8-1.8-1.8h-48.9V65.2h26.5c1,0,1.8-0.8,1.8-1.8v-18
			c0-1-0.8-1.8-1.8-1.8h-26.5V25.4H320.7z"/>
	</g>
</g>
</svg>
