<?xml version="1.0" encoding="UTF-8"?><svg id="VTF_-_White" xmlns="http://www.w3.org/2000/svg" viewBox="0 0 325.67 108.94"><defs><style>.cls-1{fill:#fff;}.cls-2{fill:#62a4c5;}.cls-3{fill:#d4794c;}.cls-4{fill:#7f9cac;}.cls-5{fill:#2cace2;}.cls-6{fill:#949494;}.cls-7{fill:#f16724;}.cls-8{fill:#b68870;}</style></defs><g><path class="cls-1" d="M60.12,47.35L44.71,11.53l-2.9-6.77c-.22-.51-.72-.84-1.28-.84H4.56c-.47,0-.9,.23-1.16,.63-.26,.39-.3,.88-.12,1.32L40.81,94.09c.22,.52,.73,.85,1.28,.85,.01,0,.03,0,.04,0,.57-.01,1.08-.37,1.28-.91l16.74-45.64c.12-.33,.11-.71-.03-1.03"/><path class="cls-3" d="M118.29,25.57h-35.94c-1.59,0-2.88-1.29-2.88-2.88s1.29-2.88,2.88-2.88h35.94c1.59,0,2.88,1.29,2.88,2.88s-1.29,2.88-2.88,2.88"/><path class="cls-8" d="M112.15,41.46h-35.47c-1.59,0-2.88-1.29-2.88-2.88s1.29-2.88,2.88-2.88h35.47c1.59,0,2.88,1.29,2.88,2.88s-1.29,2.88-2.88,2.88"/><path class="cls-6" d="M106.01,57.35h-35.01c-1.59,0-2.88-1.29-2.88-2.88s1.29-2.88,2.88-2.88h35.01c1.59,0,2.88,1.29,2.88,2.88s-1.29,2.88-2.88,2.88"/><path class="cls-4" d="M99.4,73.24h-34.54c-1.59,0-2.88-1.29-2.88-2.88s1.29-2.88,2.88-2.88h34.54c1.59,0,2.88,1.29,2.88,2.88s-1.29,2.88-2.88,2.88"/><path class="cls-2" d="M92.79,89.14H58.71c-1.59,0-2.88-1.29-2.88-2.88s1.29-2.88,2.88-2.88h34.07c1.59,0,2.88,1.29,2.88,2.88s-1.29,2.88-2.88,2.88"/><path class="cls-7" d="M124.44,9.67h-36.41c-1.59,0-2.88-1.29-2.88-2.88s1.29-2.88,2.88-2.88h36.41c1.59,0,2.88,1.29,2.88,2.88s-1.29,2.88-2.88,2.88"/><path class="cls-5" d="M86.18,105.03H52.57c-1.59,0-2.88-1.29-2.88-2.88s1.29-2.88,2.88-2.88h33.61c1.59,0,2.88,1.29,2.88,2.88s-1.29,2.88-2.88,2.88"/></g><path class="cls-1" d="M320.74,25.45c.98,0,1.77-.79,1.77-1.77V5.68c0-.98-.79-1.77-1.77-1.77h-74.32c-.98,0-1.77,.79-1.77,1.77V103.26c0,.98,.79,1.77,1.77,1.77h23.66c.98,0,1.77-.79,1.77-1.77v-38.02h26.48c.98,0,1.77-.79,1.77-1.77v-18c0-.98-.79-1.77-1.77-1.77h-26.48V25.45h48.89Z"/><path class="cls-1" d="M226.04,3.91h-80.11c-.98,0-1.77,.79-1.77,1.77V23.68c0,.98,.79,1.77,1.77,1.77h26.22l.2,77.88c0,.98,.79,1.77,1.77,1.77h23.67c.98,0,1.77-.79,1.77-1.77l-.2-77.88h26.69c.98,0,1.77-.79,1.77-1.77V5.68c0-.98-.79-1.77-1.77-1.77Z"/></svg>